<svg width="22" height="22" viewBox="0 0 15 14" fill="none" xmlns="http://www.w3.org/2000/svg">
  <path
    d="M7.84113 7.49678L7.13099 8.20693C7.03187 8.30606 6.9823 8.42209 6.9823 8.55502C6.9823 8.68796 7.03187 8.80458 7.13099 8.90488C7.23011 9.00516 7.34614 9.0553 7.47908 9.0553C7.61203 9.0553 7.72922 9.00458 7.83067 8.90313L9.38221 7.35159C9.48134 7.25077 9.5309 7.13315 9.5309 6.99873C9.5309 6.86431 9.48134 6.74754 9.38221 6.64841L7.82719 5.09339C7.72806 4.99426 7.61203 4.9447 7.47908 4.9447C7.34614 4.9447 7.23011 4.99484 7.13099 5.09513C7.03187 5.19542 6.9823 5.31204 6.9823 5.44498C6.9823 5.57791 7.03187 5.69394 7.13099 5.79307L7.84113 6.50322H5.72908C5.58642 6.50322 5.46796 6.55035 5.3737 6.64461C5.27944 6.73887 5.2323 6.85734 5.2323 7C5.2323 7.14267 5.27944 7.26113 5.3737 7.3554C5.46796 7.44965 5.58642 7.49678 5.72908 7.49678H7.84113ZM7.50049 12.9205C6.689 12.9205 5.92317 12.7656 5.20302 12.4556C4.48287 12.1457 3.85387 11.7218 3.31604 11.184C2.7782 10.6461 2.35432 10.0173 2.04439 9.29747C1.73446 8.57764 1.5795 7.81198 1.5795 7.00048C1.5795 6.17927 1.73446 5.40858 2.04439 4.68843C2.35432 3.96827 2.77802 3.34165 3.31548 2.80855C3.85296 2.27546 4.4817 1.85343 5.20171 1.54245C5.92171 1.23148 6.68755 1.07599 7.49924 1.07599C8.32065 1.07599 9.09157 1.23139 9.81199 1.54219C10.5324 1.85298 11.1591 2.27477 11.692 2.80756C12.2249 3.34034 12.6468 3.96686 12.9577 4.6871C13.2686 5.40735 13.424 6.17832 13.424 7C13.424 7.81182 13.2685 8.57778 12.9576 9.2979C12.6466 10.018 12.2246 10.6468 11.6915 11.1844C11.1584 11.7219 10.5319 12.1457 9.81207 12.4556C9.09223 12.7656 8.32171 12.9205 7.50049 12.9205ZM7.50001 11.927C8.87126 11.927 10.0352 11.4469 10.9919 10.4868C11.9486 9.52673 12.427 8.36446 12.427 7C12.427 5.62875 11.9486 4.46478 10.9919 3.50808C10.0352 2.55139 8.87068 2.07305 7.49826 2.07305C6.13556 2.07305 4.97403 2.55139 4.01365 3.50808C3.05326 4.46478 2.57306 5.62933 2.57306 7.00175C2.57306 8.36445 3.05311 9.52599 4.01319 10.4864C4.97328 11.4468 6.13556 11.927 7.50001 11.927Z"
    fill="white" />
</svg>
  